<svg width="709" height="571" viewBox="0 0 709 571" fill="none" xmlns="http://www.w3.org/2000/svg">
<path d="M264.333 298.795C258.718 286.15 246.181 278 232.345 278H53.4445C28.751 278 11.8223 302.882 20.8892 325.851L103.392 534.851C108.668 548.217 121.577 557 135.947 557H325.161C350.484 557 367.426 530.939 357.148 507.795L264.333 298.795Z" fill="#8D9FE7"/>
<g filter="url(#filter0_d_6_9)">
<path d="M439.854 298.538C446.755 283.009 462.155 273 479.149 273H645.782C676.124 273 696.922 303.577 685.775 331.797L607.565 529.797C601.081 546.214 585.223 557 567.572 557H391.162C360.046 557 339.232 524.973 351.868 496.538L439.854 298.538Z" fill="#6986CF"/>
</g>
<g filter="url(#filter1_d_6_9)">
<path d="M265.552 274.774C258.816 290.673 243.225 301 225.959 301H62.1418C32.0934 301 11.3107 270.966 21.9007 242.845L100.233 34.8454C106.542 18.0918 122.571 7.00001 140.474 7.00001H314.082C344.876 7.00001 365.688 38.4205 353.675 66.7744L265.552 274.774Z" fill="#6986CF"/>
</g>
<g filter="url(#filter2_d_6_9)">
<path d="M432.068 293.71C437.564 306.62 450.239 315 464.271 315H658.332C682.814 315 699.731 290.509 691.066 267.612L600.996 29.6118C595.845 16.0029 582.812 7 568.261 7H362.941C337.85 7 320.91 32.6245 330.739 55.7105L432.068 293.71Z" fill="#8D9FE7"/>
</g>
<defs>
<filter id="filter0_d_6_9" x="338.714" y="267.6" width="359.51" height="302.8" filterUnits="userSpaceOnUse" color-interpolation-filters="sRGB">
<feFlood flood-opacity="0" result="BackgroundImageFix"/>
<feColorMatrix in="SourceAlpha" type="matrix" values="0 0 0 0 0 0 0 0 0 0 0 0 0 0 0 0 0 0 127 0" result="hardAlpha"/>
<feOffset dy="4"/>
<feGaussianBlur stdDeviation="4.7"/>
<feComposite in2="hardAlpha" operator="out"/>
<feColorMatrix type="matrix" values="0 0 0 0 0 0 0 0 0 0 0 0 0 0 0 0 0 0 0.25 0"/>
<feBlend mode="normal" in2="BackgroundImageFix" result="effect1_dropShadow_6_9"/>
<feBlend mode="normal" in="SourceGraphic" in2="effect1_dropShadow_6_9" result="shape"/>
</filter>
<filter id="filter1_d_6_9" x="10.1026" y="2" width="356.025" height="312" filterUnits="userSpaceOnUse" color-interpolation-filters="sRGB">
<feFlood flood-opacity="0" result="BackgroundImageFix"/>
<feColorMatrix in="SourceAlpha" type="matrix" values="0 0 0 0 0 0 0 0 0 0 0 0 0 0 0 0 0 0 127 0" result="hardAlpha"/>
<feOffset dy="4"/>
<feGaussianBlur stdDeviation="4.5"/>
<feComposite in2="hardAlpha" operator="out"/>
<feColorMatrix type="matrix" values="0 0 0 0 0 0 0 0 0 0 0 0 0 0 0 0 0 0 0.25 0"/>
<feBlend mode="normal" in2="BackgroundImageFix" result="effect1_dropShadow_6_9"/>
<feBlend mode="normal" in="SourceGraphic" in2="effect1_dropShadow_6_9" result="shape"/>
</filter>
<filter id="filter2_d_6_9" x="317.504" y="0.6" width="386.26" height="328.8" filterUnits="userSpaceOnUse" color-interpolation-filters="sRGB">
<feFlood flood-opacity="0" result="BackgroundImageFix"/>
<feColorMatrix in="SourceAlpha" type="matrix" values="0 0 0 0 0 0 0 0 0 0 0 0 0 0 0 0 0 0 127 0" result="hardAlpha"/>
<feOffset dy="4"/>
<feGaussianBlur stdDeviation="5.2"/>
<feComposite in2="hardAlpha" operator="out"/>
<feColorMatrix type="matrix" values="0 0 0 0 0 0 0 0 0 0 0 0 0 0 0 0 0 0 0.25 0"/>
<feBlend mode="normal" in2="BackgroundImageFix" result="effect1_dropShadow_6_9"/>
<feBlend mode="normal" in="SourceGraphic" in2="effect1_dropShadow_6_9" result="shape"/>
</filter>
</defs>
</svg>
